<svg width="30" height="29.0007" viewBox="0 0 30 29.0007" fill="none" xmlns="http://www.w3.org/2000/svg">
<g id="Frame 2147231804">
<path id="Vector" d="M18.693 22.4695C18.7243 20.1446 18.6379 17.798 18.7244 15.4785C18.7559 14.6329 19.838 14.4841 20.3759 15.3095L20.372 18.2033L24.931 18.1811C26.0948 18.1752 27.3091 18.2281 27.4428 19.7289C27.518 20.5712 27.4749 21.4626 27.4715 22.3112L27.4441 27.3537C27.9318 27.367 29.4358 27.2244 29.6628 27.5215C30.9699 29.2316 28.0961 28.993 27.5057 28.9851L9.26114 28.9875L3.62183 28.9891C2.66429 28.9893 1.70261 28.9997 0.745805 28.9769C0.363168 28.9678 0.0140687 28.5378 0.000611245 28.1648C-0.00791887 27.9521 0.0731438 27.7456 0.224196 27.595C0.607945 27.2103 1.92572 27.3402 2.55377 27.3402C2.5393 27.1708 2.54237 26.9993 2.54592 26.8291C2.58534 24.9398 2.53909 23.0424 2.63875 21.1554C2.74238 19.1936 4.54626 19.5992 5.91357 19.6248C7.12496 19.6474 8.35435 19.6239 9.57442 19.7279L9.57946 15.3568C9.76749 15.0071 9.82015 14.9513 10.1773 14.7739C11.1159 14.7302 11.3487 15.2436 11.2247 16.1013C12.2124 16.3863 13.2032 16.6606 14.1968 16.9243C14.9178 17.12 16.7116 17.4674 16.8072 18.2668C16.9581 19.5291 16.8842 21.1967 16.8785 22.4768C17.478 22.4674 18.0951 22.4492 18.693 22.4695Z" fill="#649F98"/>
<path id="Vector_2" d="M11.2695 17.8359C12.463 18.096 13.9321 18.5981 15.1896 18.9143C15.0955 21.6591 15.1454 24.5753 15.1235 27.3399C13.8643 27.3673 12.5211 27.3512 11.2597 27.3432C11.2204 24.3508 11.1973 20.8179 11.2695 17.8359Z" fill="#EDF5F2"/>
<path id="Vector_3" d="M4.27623 21.2137C6.04578 21.1981 7.81533 21.2482 9.58111 21.3638L9.5765 27.3405L4.26367 27.3494L4.27623 21.2137Z" fill="#EDF5F2"/>
<path id="Vector_4" d="M20.3745 19.8359L25.7792 19.8378C25.7798 22.3324 25.7636 24.8269 25.7304 27.3213C25.5033 27.3747 23.4067 27.3474 23.027 27.3449C23.016 26.2902 23.0519 25.222 23.037 24.1679C23.0305 23.7084 22.8666 23.1947 22.5077 22.8878C21.8919 22.3612 21.1207 22.4446 20.3772 22.4814L20.3745 19.8359Z" fill="#EDF5F2"/>
<path id="Vector_5" d="M16.8702 24.0742C18.3598 24.0837 19.8494 24.0846 21.339 24.077C21.3431 25.1646 21.3413 26.2523 21.3337 27.3399C19.8629 27.3647 18.321 27.3514 16.8477 27.3459L16.8702 24.0742Z" fill="#EDF5F2"/>
<path id="Vector_6" d="M14.3923 0.0543344C16.4234 -0.273197 18.6977 0.921538 19.895 2.52138C20.8405 3.78773 21.2471 5.37443 21.0268 6.93757C20.6825 9.22195 18.7415 11.7191 17.3284 13.5283C16.877 14.1064 16.0723 15.1249 15.508 15.5403C14.2987 16.0085 13.4517 14.6671 12.7904 13.8153C11.2954 11.89 9.22567 9.42126 8.88627 6.95246C8.40095 3.42228 10.944 0.471803 14.3923 0.0543344Z" fill="#649F98"/>
<path id="Vector_7" d="M14.7164 1.74686C16.9653 1.47979 19.1696 3.46489 19.3523 5.6389C19.582 8.37343 16.718 11.6107 15.0929 13.6318C15.0565 13.6886 15.017 13.6925 14.9514 13.7171C14.8269 13.6541 14.1933 12.8642 14.0741 12.7055C12.1182 10.1017 8.85111 6.5605 11.5588 3.32468C12.4222 2.29276 13.4199 1.85343 14.7164 1.74686Z" fill="#EDF5F2"/>
<path id="Vector_8" d="M14.6775 4.12672C15.9133 4.01418 17.0111 4.91075 17.1433 6.14066C17.2755 7.37051 16.3933 8.47864 15.1616 8.62962C14.3476 8.72938 13.5428 8.38416 13.056 7.7263C12.5691 7.06838 12.4757 6.20007 12.8117 5.45428C13.1476 4.70854 13.8608 4.20113 14.6775 4.12672Z" fill="#649F98"/>
<path id="Vector_9" d="M14.7867 5.72656C15.5991 5.76606 15.7447 6.80453 14.9453 7.00083C14.7119 6.99666 14.4292 6.88217 14.3153 6.68418C14.0518 6.22631 14.5091 5.90791 14.7867 5.72656Z" fill="#EDF5F2"/>
</g>
</svg>
